HIERARCHY
ROOT joint_Root
{
	OFFSET 0.0 0.0 0.0
	CHANNELS 6 Xposition Yposition Zposition Zrotation Xrotation Yrotation 
	JOINT Hips
	{
		OFFSET -0.726466 93.3139 -2.00062
		CHANNELS 6 Xposition Yposition Zposition Zrotation Xrotation Yrotation 
		JOINT Spine
		{
			OFFSET 15.7357 0.0 0.0
			CHANNELS 6 Xposition Yposition Zposition Zrotation Xrotation Yrotation 
			JOINT Chest
			{
				OFFSET 8.98455 -0.406207 0.0
				CHANNELS 6 Xposition Yposition Zposition Zrotation Xrotation Yrotation 
				JOINT Neck
				{
					OFFSET 16.3773 0.0 0.0
					CHANNELS 6 Xposition Yposition Zposition Zrotation Xrotation Yrotation 
					JOINT Head
					{
						OFFSET 6.45672 0.0 0.0
						CHANNELS 6 Xposition Yposition Zposition Zrotation Xrotation Yrotation 
						End Site
						{
							OFFSET 0.0 0.0 0.0
						}
					}
				}
				JOINT Shoulder_L
				{
					OFFSET 12.9942 -0.242716 4.98039
					CHANNELS 6 Xposition Yposition Zposition Zrotation Xrotation Yrotation 
					JOINT UpperArm_L
					{
						OFFSET 5.34809 0.0 0.0
						CHANNELS 6 Xposition Yposition Zposition Zrotation Xrotation Yrotation 
						JOINT LowerArm_L
						{
							OFFSET 24.3286 1.87007e-05 0.0
							CHANNELS 6 Xposition Yposition Zposition Zrotation Xrotation Yrotation 
							JOINT Hand_L
							{
								OFFSET 22.2916 0.0 0.0
								CHANNELS 6 Xposition Yposition Zposition Zrotation Xrotation Yrotation 
								End Site
								{
									OFFSET 0.0 0.0 0.0
								}
							}
						}
					}
				}
				JOINT Shoulder_R
				{
					OFFSET 12.9945 -0.242716 -4.98039
					CHANNELS 6 Xposition Yposition Zposition Zrotation Xrotation Yrotation 
					JOINT UpperArm_R
					{
						OFFSET -5.34813 0.0 0.0
						CHANNELS 6 Xposition Yposition Zposition Zrotation Xrotation Yrotation 
						JOINT LowerArm_R
						{
							OFFSET -24.3289 0.000322201 0.0
							CHANNELS 6 Xposition Yposition Zposition Zrotation Xrotation Yrotation 
							JOINT Hand_R
							{
								OFFSET -22.2915 -0.000108084 0.0
								CHANNELS 6 Xposition Yposition Zposition Zrotation Xrotation Yrotation 
								End Site
								{
									OFFSET 0.0 0.0 0.0
								}
							}
						}
					}
				}
			}
		}
		JOINT UpperLeg_L
		{
			OFFSET -2.19248 -6.46944 0.0
			CHANNELS 6 Xposition Yposition Zposition Zrotation Xrotation Yrotation 
			JOINT LowerLeg_L
			{
				OFFSET 39.0811 0.0 -1.23785e-05
				CHANNELS 6 Xposition Yposition Zposition Zrotation Xrotation Yrotation 
				JOINT Foot_L
				{
					OFFSET 40.9854 0.0 -1.26872e-05
					CHANNELS 6 Xposition Yposition Zposition Zrotation Xrotation Yrotation 
					JOINT Toes_L
					{
						OFFSET 11.7543 0.0 0.0
						CHANNELS 6 Xposition Yposition Zposition Zrotation Xrotation Yrotation 
						End Site
						{
							OFFSET 0.0 0.0 0.0
						}
					}
				}
			}
		}
		JOINT UpperLeg_R
		{
			OFFSET -2.19251 6.46944 0.0
			CHANNELS 6 Xposition Yposition Zposition Zrotation Xrotation Yrotation 
			JOINT LowerLeg_R
			{
				OFFSET -39.0811 -0.00228153 -0.0401928
				CHANNELS 6 Xposition Yposition Zposition Zrotation Xrotation Yrotation 
				JOINT Foot_R
				{
					OFFSET -40.9854 0.0 0.0
					CHANNELS 6 Xposition Yposition Zposition Zrotation Xrotation Yrotation 
					JOINT Toes_R
					{
						OFFSET -11.7543 0.0 0.0
						CHANNELS 6 Xposition Yposition Zposition Zrotation Xrotation Yrotation 
						End Site
						{
							OFFSET 0.0 0.0 0.0
						}
					}
				}
			}
		}
	}
}
MOTION
Frames:	6
Frame Time:	0.0333333
0.000000 0.000000 0.000000 0.000000 0.000000 -0.000000 -0.873725 92.057800 -2.538570 87.835300 -1.021710 5.371600 15.735700 0.000005 -0.000001 84.249400 83.715000 -83.439400 8.984550 -0.406207 -0.000000 4.751260 -1.278450 1.671220 16.377300 -0.000001 -0.000001 6.228600 -1.585810 1.372990 6.456720 -0.000001 -0.000000 3.512990 -0.619830 -2.174230 12.994200 -0.242716 4.980390 -90.196900 0.597522 -71.763000 5.348090 -0.000007 -0.000001 -64.106900 37.047400 -13.682500 24.328600 0.000019 0.000005 2.898670 5.313490 -28.668500 22.291600 -0.000001 0.000005 6.144530 5.636510 -13.840400 12.994500 -0.242716 -4.980390 87.745400 6.565930 -71.000600 -5.348130 -0.000001 -0.000004 -63.992800 29.863900 -13.801800 -24.328900 0.000322 -0.000009 1.100530 3.242910 -18.773600 -22.291500 -0.000108 -0.000004 4.097080 5.546790 -8.556390 -2.192480 -6.469440 -0.000000 -169.204000 -17.897400 -2.401500 39.081100 -0.000007 -0.000012 -0.169557 0.395093 23.227100 40.985400 -0.000006 -0.000013 -5.793300 -0.375758 -63.351500 11.754300 -0.000000 0.000003 -0.000113 -0.001139 -16.621100 -2.192510 6.469440 -0.000001 173.555000 22.944700 -179.476000 -39.081100 -0.002282 -0.040193 -0.055453 0.160420 20.121700 -40.985400 0.000008 0.000006 -3.818290 2.446170 -62.722500 -11.754300 -0.000006 -0.000006 -0.003764 -0.048961 -18.564600
0.000000 0.000000 0.000000 0.000000 0.000000 -0.000000 -0.881898 92.065500 -2.593540 87.823200 -0.960370 5.434150 15.735700 0.000005 -0.000001 84.313700 83.695300 -83.530600 8.984550 -0.406207 -0.000000 4.791400 -1.267320 1.617430 16.377300 -0.000001 -0.000001 6.185630 -1.595600 1.404830 6.456720 -0.000001 -0.000000 3.430160 -0.685259 -2.183020 12.994200 -0.242716 4.980390 -90.217600 0.659440 -71.735900 5.348090 -0.000007 -0.000001 -63.568700 37.517900 -14.026000 24.328600 0.000019 0.000005 2.989550 5.380260 -29.116100 22.291600 -0.000001 0.000005 6.124640 5.638250 -13.980900 12.994500 -0.242716 -4.980390 87.742700 6.588590 -71.040100 -5.348130 -0.000001 -0.000004 -63.170600 30.681900 -14.379800 -24.328900 0.000322 -0.000009 1.088090 3.119160 -19.258900 -22.291500 -0.000108 -0.000004 3.866160 5.548800 -8.650410 -2.192480 -6.469440 -0.000000 -169.186000 -17.927000 -2.393560 39.081100 -0.000007 -0.000012 -0.166920 0.389137 23.217000 40.985400 -0.000006 -0.000013 -5.761660 -0.321132 -63.287600 11.754300 -0.000000 0.000003 -0.000106 -0.001083 -16.619000 -2.192510 6.469440 -0.000001 173.575000 22.995100 -179.461000 -39.081100 -0.002282 -0.040193 -0.051226 0.148690 20.145700 -40.985400 0.000008 0.000006 -3.630720 2.435700 -62.713900 -11.754300 -0.000006 -0.000006 -0.003714 -0.048433 -18.543100
0.000000 0.000000 0.000000 0.000000 0.000000 -0.000000 -0.877774 92.060500 -2.635910 87.827900 -1.007940 5.483440 15.735700 0.000005 -0.000001 84.567400 83.708600 -83.831800 8.984550 -0.406207 -0.000000 4.769290 -1.208270 1.519810 16.377300 -0.000001 -0.000001 6.167490 -1.544470 1.455330 6.456720 -0.000001 -0.000000 3.391590 -0.733599 -2.119170 12.994200 -0.242716 4.980390 -90.210600 0.635941 -71.679600 5.348090 -0.000007 -0.000001 -63.111600 37.774400 -14.264600 24.328600 0.000019 0.000005 3.207060 5.657650 -29.612100 22.291600 -0.000001 0.000005 6.078020 5.638370 -13.990300 12.994500 -0.242716 -4.980390 87.754100 6.604660 -71.172000 -5.348130 -0.000001 -0.000004 -61.995100 31.750900 -14.945000 -24.328900 0.000322 -0.000009 1.157500 3.152670 -20.190000 -22.291500 -0.000108 -0.000004 3.627320 5.549430 -8.679150 -2.192480 -6.469440 -0.000000 -169.165000 -17.974500 -2.366680 39.081100 -0.000007 -0.000012 -0.167981 0.390972 23.250900 40.985400 -0.000006 -0.000013 -5.753740 -0.282526 -63.286900 11.754300 -0.000000 0.000003 -0.000097 -0.000998 -16.615900 -2.192510 6.469440 -0.000001 173.558000 22.946100 -179.471000 -39.081100 -0.002282 -0.040193 -0.052812 0.152613 20.194300 -40.985400 0.000008 0.000006 -3.671500 2.443830 -62.703300 -11.754300 -0.000006 -0.000006 -0.003817 -0.049526 -18.587600
0.000000 0.000000 0.000000 0.000000 0.000000 -0.000000 -0.867323 92.061000 -2.672710 87.833400 -1.096550 5.569200 15.735700 0.000005 -0.000001 85.047400 83.704800 -84.361200 8.984550 -0.406207 -0.000000 4.785020 -1.102720 1.416940 16.377300 -0.000001 -0.000001 6.043140 -1.436220 1.469420 6.456720 -0.000001 -0.000000 3.397650 -0.793854 -2.015180 12.994200 -0.242716 4.980390 -90.180200 0.544789 -71.695400 5.348090 -0.000007 -0.000001 -62.624900 37.906300 -14.486700 24.328600 0.000019 0.000005 3.272300 5.642980 -30.175700 22.291600 -0.000001 0.000005 6.062590 5.640460 -14.164900 12.994500 -0.242716 -4.980390 87.819300 6.500340 -71.409400 -5.348130 -0.000001 -0.000004 -60.533800 32.694600 -15.548800 -24.328900 0.000322 -0.000009 1.147360 2.888940 -21.691200 -22.291500 -0.000108 -0.000004 3.328200 5.549720 -8.692580 -2.192480 -6.469440 -0.000000 -169.157000 -17.998600 -2.296170 39.081100 -0.000007 -0.000012 -0.168064 0.390883 23.265900 40.985400 -0.000006 -0.000013 -5.752390 -0.365027 -63.279900 11.754300 -0.000000 0.000003 -0.000100 -0.001032 -16.617200 -2.192510 6.469440 -0.000001 173.527000 22.897500 -179.432000 -39.081100 -0.002282 -0.040193 -0.052978 0.152861 20.218800 -40.985400 0.000008 0.000006 -3.645300 2.492150 -62.681300 -11.754300 -0.000006 -0.000006 -0.003723 -0.048523 -18.546800
0.000000 0.000000 0.000000 0.000000 0.000000 -0.000000 -0.860442 92.055600 -2.713540 87.810400 -1.185020 5.638020 15.735700 0.000005 -0.000001 85.568800 83.700100 -84.919100 8.984550 -0.406207 -0.000000 4.802530 -0.988416 1.339490 16.377300 -0.000001 -0.000001 5.915640 -1.358030 1.499980 6.456720 -0.000001 -0.000000 3.311830 -0.763668 -1.943080 12.994200 -0.242716 4.980390 -90.117700 0.357376 -71.775600 5.348090 -0.000007 -0.000001 -61.916700 38.283300 -14.722400 24.328600 0.000019 0.000005 3.434250 5.690890 -31.181500 22.291600 -0.000001 0.000005 6.063890 5.640810 -14.193600 12.994500 -0.242716 -4.980390 87.913700 6.268560 -71.549400 -5.348130 -0.000001 -0.000004 -58.589400 33.359400 -16.507500 -24.328900 0.000322 -0.000009 1.027750 2.340840 -23.735300 -22.291500 -0.000108 -0.000004 3.090410 5.550550 -8.732160 -2.192480 -6.469440 -0.000000 -169.132000 -17.937600 -2.269280 39.081100 -0.000007 -0.000012 -0.168473 0.390533 23.335200 40.985400 -0.000006 -0.000013 -5.767190 -0.484510 -63.311600 11.754300 -0.000000 0.000003 -0.000097 -0.001002 -16.616000 -2.192510 6.469440 -0.000001 173.511000 22.913600 -179.395000 -39.081100 -0.002282 -0.040193 -0.053482 0.154168 20.226100 -40.985400 0.000008 0.000006 -3.726890 2.602000 -62.639400 -11.754300 -0.000006 -0.000006 -0.003920 -0.050605 -18.631500
0.000000 0.000000 0.000000 0.000000 0.000000 -0.000000 -0.832815 92.058200 -2.766080 87.827100 -1.298120 5.737980 15.735700 0.000005 -0.000001 85.741700 83.708900 -85.139800 8.984550 -0.406207 -0.000000 4.787150 -0.948138 1.241930 16.377300 -0.000001 -0.000001 5.883160 -1.246100 1.518050 6.456720 -0.000001 -0.000000 3.247130 -0.618162 -1.944040 12.994200 -0.242716 4.980390 -90.053500 0.163124 -71.852500 5.348090 -0.000007 -0.000001 -60.289800 39.801400 -15.167600 24.328600 0.000019 0.000005 3.433240 5.337800 -32.817700 22.291600 -0.000001 0.000005 5.993750 5.643150 -14.395200 12.994500 -0.242716 -4.980390 88.042400 5.886470 -71.568500 -5.348130 -0.000001 -0.000004 -56.029900 33.708800 -17.901800 -24.328900 0.000322 -0.000009 0.824679 1.664620 -26.399000 -22.291500 -0.000108 -0.000004 3.303670 5.554000 -8.895870 -2.192480 -6.469440 -0.000000 -169.132000 -17.973600 -2.179260 39.081100 -0.000007 -0.000012 -0.168774 0.391308 23.331100 40.985400 -0.000006 -0.000013 -5.757130 -0.547205 -63.289100 11.754300 -0.000000 0.000003 -0.000108 -0.001099 -16.619600 -2.192510 6.469440 -0.000001 173.438000 22.973600 -179.356000 -39.081100 -0.002282 -0.040193 -0.052776 0.151996 20.257500 -40.985400 0.000008 0.000006 -3.653040 2.782130 -62.594400 -11.754300 -0.000006 -0.000006 -0.003764 -0.048958 -18.564500
